<svg width="30" height="30" viewBox="0 0 30 30" fill="none" xmlns="http://www.w3.org/2000/svg">
<path d="M0 30L2.58 22.2605C1.27086 20.0586 0.517241 17.489 0.517241 14.7414C0.517241 6.6 7.11724 0 15.2586 0C23.4 0 30 6.6 30 14.7414C30 22.8828 23.4 29.4828 15.2586 29.4828C12.7816 29.4828 10.4488 28.8688 8.4 27.7898L0 30Z" fill="#2CB742"/>
<path d="M24.6637 19.6475C23.983 18.3611 21.4728 16.89 21.4728 16.89C20.9049 16.5663 20.2195 16.53 19.8957 17.1073C19.8957 17.1073 19.0801 18.0854 18.8726 18.2261C17.9251 18.868 17.0473 18.8432 16.1613 17.9571L14.1021 15.898L12.043 13.8388C11.157 12.9528 11.1321 12.075 11.774 11.1275C11.9147 10.92 12.8928 10.1044 12.8928 10.1044C13.4701 9.78005 13.4339 9.09522 13.1101 8.52729C13.1101 8.52729 11.639 6.01712 10.3526 5.33643C9.8054 5.04677 9.13351 5.14815 8.69592 5.58574L7.78661 6.49505C4.90196 9.3797 6.3223 12.6363 9.20695 15.5209L11.8433 18.1573L14.4797 20.7937C17.3644 23.6783 20.6209 25.0987 23.5056 22.214L24.4149 21.3047C24.8525 20.8661 24.9533 20.1942 24.6637 19.6475Z" fill="white"/>
</svg>
